<svg width="482" height="397" fill="none" xmlns="http://www.w3.org/2000/svg"><circle cx="77.5" cy="50.502" r="2.5" transform="rotate(-180 77.5 50.502)" fill="#333"/><circle cx="77.5" cy="123.502" r="2.5" transform="rotate(-180 77.5 123.502)" fill="#333"/><circle cx="77.5" cy="199.502" r="2.5" fill="#333"/><circle cx="77.5" cy="199.502" r="2.5" fill="#333"/><circle cx="77.5" cy="272.502" r="2.5" fill="#333"/><circle cx="77.5" cy="272.502" r="2.5" fill="#333"/><circle cx="77.5" cy="272.502" r="2.5" fill="#333"/><circle cx="77.5" cy="272.502" r="2.5" fill="#333"/><circle cx="77.5" cy="344.502" r="2.5" fill="#333"/><path fill-rule="evenodd" clip-rule="evenodd" d="M98.868 14.875c143.911-19.112 226.858-20.542 380.265 0l.867.116v68.26h-9.073v31.446h-16.192a71.646 71.646 0 0 0-.957 7.029c-.376 4.456-.355 9.756 1.075 13.583 1.523 4.081 5.375 8.439 8.964 11.843a80.414 80.414 0 0 0 4.69 4.104 67.028 67.028 0 0 0 1.744 1.366l.13.098.063.047.04.029.026.019.006.005h.001l-.001.002.001-.001.41.299v25.962H480v161.225h-9.073v36.748l-.795.167c-125.899 26.354-206.367 26.395-360.626.007l-.832-.143V340.307H98V179.082h10.674v-26.037l.508-.287c.869-.492 1.761-.974 2.661-1.461 2.799-1.513 5.669-3.065 8.161-5.071 3.239-2.607 5.712-5.897 6.29-10.687l.001-.01.002-.011c.928-6.508 1.063-10.96.085-20.821h-17.708V83.251H98V14.99l.868-.115Zm11.806 325.544c146.733 15.591 225.597 15.607 358.253.013v34.998c-124.925 26.08-205.057 26.126-358.253-.031v-34.98ZM100 16.742v64.51H478v-64.51c-152.359-20.355-235.06-18.944-378 0Zm368.927 66.51v29.445H110.674V83.251h358.253Zm-16.423 32.575c.071-.429.138-.808.197-1.13H128.392c.731 7.431.834 11.873.432 16.468h323.027c-.409-3.225-.314-6.668-.066-9.607a73.54 73.54 0 0 1 .719-5.731Zm-.326 17.338c.204.994.467 1.95.801 2.844 1.696 4.543 5.85 9.169 9.462 12.594a82.508 82.508 0 0 0 6.322 5.401l.131.099.033.025v25.579c-139.368 6.755-218.415 6.24-358.253-.081v-25.412c.645-.359 1.317-.722 2.004-1.093 2.831-1.53 5.932-3.205 8.581-5.337 3.514-2.829 6.359-6.549 7.019-11.994.129-.907.243-1.776.342-2.625h323.558ZM109.629 181.58l.022-.498H100v157.225h9.727l.053.006c147.723 15.738 226.528 15.747 360.03.001l.058-.007H478V181.082h-6.447l.024.498c-141.348 6.905-220.607 6.404-361.948 0Z" fill="#344F10"/><path fill="#333" d="M76 51.001H0v-1h76zM76 124.002H0v-1h76zM76 200.002H0v-1h76zM76 273.002H0v-1h76zM76 345.002H0v-1h76z"/><circle cx="77.5" cy="344.502" r="2.5" fill="#333"/><circle cx="77.5" cy="344.502" r="2.5" fill="#333"/><circle cx="77.5" cy="344.502" r="2.5" fill="#333"/></svg>